<svg width="48" height="48" viewBox="0 0 48 48" fill="none" xmlns="http://www.w3.org/2000/svg">
<path d="M36.4955 13.102C34.165 12.0777 31.6733 11.3332 29.0684 10.9093C28.7483 11.4527 28.3746 12.1836 28.117 12.7651C25.3477 12.3738 22.6039 12.3738 19.8857 12.7651C19.6281 12.1836 19.2458 11.4527 18.9231 10.9093C16.3152 11.3332 13.8206 12.0804 11.4903 13.1074C6.78997 19.7806 5.51578 26.2881 6.15287 32.703C9.27038 34.8903 12.2916 36.2189 15.2619 37.0884C15.9952 36.1402 16.6493 35.1322 17.2128 34.0697C16.1396 33.6866 15.1118 33.2139 14.1406 32.665C14.3983 32.4857 14.6503 32.2982 14.8938 32.1053C20.8174 34.7082 27.2533 34.7082 33.1062 32.1053C33.3524 32.2982 33.6045 32.4857 33.8593 32.665C32.8852 33.2165 31.8546 33.6893 30.7814 34.0725C31.3449 35.1322 31.9961 36.1429 32.7323 37.0911C35.7054 36.2217 38.7295 34.893 41.847 32.703C42.5946 25.2664 40.57 18.8187 36.4955 13.102ZM18.0198 28.7579C16.2416 28.7579 14.7833 27.1982 14.7833 25.299C14.7833 23.3998 16.2104 21.8375 18.0198 21.8375C19.8291 21.8375 21.2873 23.397 21.2562 25.299C21.2591 27.1982 19.8291 28.7579 18.0198 28.7579ZM29.9802 28.7579C28.2019 28.7579 26.7436 27.1982 26.7436 25.299C26.7436 23.3998 28.1708 21.8375 29.9802 21.8375C31.7894 21.8375 33.2477 23.397 33.2165 25.299C33.2165 27.1982 31.7894 28.7579 29.9802 28.7579Z" fill="#5865F2"/>
</svg>
